<?xml version="1.0" encoding="UTF-8"?><svg xmlns:svg="http://www.w3.org/2000/svg" xmlns="http://www.w3.org/2000/svg" xmlns:xlink="http://www.w3.org/1999/xlink" version="2.0" width="1200" height="1580" ><style >
svg {
  font-family: Helvetica, Arial, sans-serif;
  font-size: 11px;
}
rect {
  stroke-linecap: butt;
  stroke-width: 3;
  stroke: #fff;
/*  stroke-opacity: 1; */
}
rect:hover {
  stroke: #fff;
/*  stroke-opacity: 1; /*
}
polygon { fill: #000; }</style><defs ><polygon id="ahead" points="0 0, -12 4, -12 -4" /><filter id="glow" x="0" y="0" ><feGaussianBlur in="SourceAlpha" stdDeviation="2" result="blurred" /><feFlood flood-color="#fff" /><feComposite operator="in" in2="blurred" /><feComponentTransfer ><feFuncA type="linear" slope="10" intercept="0" /></feComponentTransfer><feMerge ><feMergeNode /><feMergeNode in="SourceGraphic" /></feMerge></filter></defs><g ><text x="100.0" y="20.0" text-anchor="middle" alignment-baseline="middle" fill="#000" >c6</text><text x="100.0" y="1020.0" text-anchor="middle" alignment-baseline="middle" fill="#aaa" >c6</text><text x="300.0" y="20.0" text-anchor="middle" alignment-baseline="middle" fill="#000" >c7</text><text x="300.0" y="1020.0" text-anchor="middle" alignment-baseline="middle" fill="#aaa" >c7</text><text x="500.0" y="20.0" text-anchor="middle" alignment-baseline="middle" fill="#000" >c8</text><text x="500.0" y="1020.0" text-anchor="middle" alignment-baseline="middle" fill="#aaa" >c8</text><text x="700.0" y="20.0" text-anchor="middle" alignment-baseline="middle" fill="#000" >n0</text><text x="700.0" y="1020.0" text-anchor="middle" alignment-baseline="middle" fill="#aaa" >n0</text><text x="900.0" y="20.0" text-anchor="middle" alignment-baseline="middle" fill="#000" >n1</text><text x="900.0" y="1020.0" text-anchor="middle" alignment-baseline="middle" fill="#aaa" >n1</text><text x="1100.0" y="20.0" text-anchor="middle" alignment-baseline="middle" fill="#000" >n2</text><text x="1100.0" y="1020.0" text-anchor="middle" alignment-baseline="middle" fill="#aaa" >n2</text></g><g ><line stroke="#ccc" x1="100.0" y1="30.0" x2="100.0" y2="1490.0" /><line stroke="#ccc" x1="300.0" y1="30.0" x2="300.0" y2="1490.0" /><line stroke="#ccc" x1="500.0" y1="30.0" x2="500.0" y2="1490.0" /><line stroke="#ccc" x1="700.0" y1="30.0" x2="700.0" y2="1490.0" /><line stroke="#ccc" x1="900.0" y1="30.0" x2="900.0" y2="1490.0" /><line stroke="#ccc" x1="1100.0" y1="30.0" x2="1100.0" y2="1490.0" /></g><g ><g transform="translate(100.0 50.0) rotate(3.8140748342903543) " ><rect x="0" y="-2.5" height="5" width="597.3318551349163" fill="#81BFFC" ><title >c6 → n0 {:type "generate", :msg_id 1}</title></rect><use xlink:href="#ahead" x="601.3318551349163" y="0" /><text text-anchor="middle" x="300.66592756745814" y="-4" transform="" filter="url(#glow)" style="fill: #fff" >generate {}</text><text text-anchor="middle" x="300.66592756745814" y="-4" transform="" >generate {}</text></g><g transform="translate(300.0 70.0) rotate(2.862405226111748) " ><rect x="0" y="-2.5" height="5" width="796.9993757800314" fill="#81BFFC" ><title >c7 → n2 {:type "generate", :msg_id 1}</title></rect><use xlink:href="#ahead" x="800.9993757800314" y="0" /><text text-anchor="middle" x="400.4996878900157" y="-4" transform="" filter="url(#glow)" style="fill: #fff" >generate {}</text><text text-anchor="middle" x="400.4996878900157" y="-4" transform="" >generate {}</text></g><g transform="translate(700.0 130.0) rotate(174.28940686250036) " ><rect x="0" y="-2.5" height="5" width="598.9925372672534" fill="#81BFFC" ><title >n0 → c6 {:type "generate_ok", :msg_id 1, :id "26adc14a-17c1-4fe7-8c12-48a79aa3c970"}</title></rect><use xlink:href="#ahead" x="602.9925372672534" y="0" /><text text-anchor="middle" x="301.4962686336267" y="-4" transform="rotate(180 301.4962686336267 0)" filter="url(#glow)" style="fill: #fff" >generate_ok {:id "26adc14a-17c1-4fe7-8c12-48a79…</text><text text-anchor="middle" x="301.4962686336267" y="-4" transform="rotate(180 301.4962686336267 0)" >generate_ok {:id "26adc14a-17c1-4fe7-8c12-48a79…</text></g><g transform="translate(1100.0 170.0) rotate(177.13759477388828) " ><rect x="0" y="-2.5" height="5" width="796.9993757800314" fill="#81BFFC" ><title >n2 → c7 {:type "generate_ok", :msg_id 1, :id "6f56a273-c609-403a-8d95-1bfa128ff5a2"}</title></rect><use xlink:href="#ahead" x="800.9993757800314" y="0" /><text text-anchor="middle" x="400.4996878900157" y="-4" transform="rotate(180 400.4996878900157 0)" filter="url(#glow)" style="fill: #fff" >generate_ok {:id "6f56a273-c609-403a-8d95-1bfa1…</text><text text-anchor="middle" x="400.4996878900157" y="-4" transform="rotate(180 400.4996878900157 0)" >generate_ok {:id "6f56a273-c609-403a-8d95-1bfa1…</text></g><g transform="translate(500.0 150.0) rotate(11.309932474020215) " ><rect x="0" y="-2.5" height="5" width="403.9215610874228" fill="#81BFFC" ><title >c8 → n1 {:type "generate", :msg_id 1}</title></rect><use xlink:href="#ahead" x="407.9215610874228" y="0" /><text text-anchor="middle" x="203.9607805437114" y="-4" transform="" filter="url(#glow)" style="fill: #fff" >generate {}</text><text text-anchor="middle" x="203.9607805437114" y="-4" transform="" >generate {}</text></g><g transform="translate(900.0 250.0) rotate(177.13759477388828) " ><rect x="0" y="-2.5" height="5" width="396.4996878900157" fill="#81BFFC" ><title >n1 → c8 {:type "generate_ok", :msg_id 1, :id "e55524e2-5eef-4c0f-aac7-66d60708a06b"}</title></rect><use xlink:href="#ahead" x="400.4996878900157" y="0" /><text text-anchor="middle" x="200.24984394500785" y="-4" transform="rotate(180 200.24984394500785 0)" filter="url(#glow)" style="fill: #fff" >generate_ok {:id "e55524e2-5eef-4c0f-aac7-66d60…</text><text text-anchor="middle" x="200.24984394500785" y="-4" transform="rotate(180 200.24984394500785 0)" >generate_ok {:id "e55524e2-5eef-4c0f-aac7-66d60…</text></g><g transform="translate(500.0 290.0) rotate(2.862405226111748) " ><rect x="0" y="-2.5" height="5" width="396.4996878900157" fill="#81BFFC" ><title >c8 → n1 {:type "generate", :msg_id 2}</title></rect><use xlink:href="#ahead" x="400.4996878900157" y="0" /><text text-anchor="middle" x="200.24984394500785" y="-4" transform="" filter="url(#glow)" style="fill: #fff" >generate {}</text><text text-anchor="middle" x="200.24984394500785" y="-4" transform="" >generate {}</text></g><g transform="translate(900.0 330.0) rotate(177.13759477388828) " ><rect x="0" y="-2.5" height="5" width="396.4996878900157" fill="#81BFFC" ><title >n1 → c8 {:type "generate_ok", :msg_id 2, :id "984dd59e-383d-4797-8418-d03fee8fca2e"}</title></rect><use xlink:href="#ahead" x="400.4996878900157" y="0" /><text text-anchor="middle" x="200.24984394500785" y="-4" transform="rotate(180 200.24984394500785 0)" filter="url(#glow)" style="fill: #fff" >generate_ok {:id "984dd59e-383d-4797-8418-d03fe…</text><text text-anchor="middle" x="200.24984394500785" y="-4" transform="rotate(180 200.24984394500785 0)" >generate_ok {:id "984dd59e-383d-4797-8418-d03fe…</text></g><g transform="translate(300.0 370.0) rotate(1.4320961841646465) " ><rect x="0" y="-2.5" height="5" width="796.2499609497023" fill="#81BFFC" ><title >c7 → n2 {:type "generate", :msg_id 2}</title></rect><use xlink:href="#ahead" x="800.2499609497023" y="0" /><text text-anchor="middle" x="400.12498047485116" y="-4" transform="" filter="url(#glow)" style="fill: #fff" >generate {}</text><text text-anchor="middle" x="400.12498047485116" y="-4" transform="" >generate {}</text></g><g transform="translate(100.0 410.0) rotate(3.8140748342903543) " ><rect x="0" y="-2.5" height="5" width="597.3318551349163" fill="#81BFFC" ><title >c6 → n0 {:type "generate", :msg_id 2}</title></rect><use xlink:href="#ahead" x="601.3318551349163" y="0" /><text text-anchor="middle" x="300.66592756745814" y="-4" transform="" filter="url(#glow)" style="fill: #fff" >generate {}</text><text text-anchor="middle" x="300.66592756745814" y="-4" transform="" >generate {}</text></g><g transform="translate(1100.0 430.0) rotate(177.13759477388828) " ><rect x="0" y="-2.5" height="5" width="796.9993757800314" fill="#81BFFC" ><title >n2 → c7 {:type "generate_ok", :msg_id 2, :id "ffc8a249-85f0-4540-b39e-a2e25ebaec05"}</title></rect><use xlink:href="#ahead" x="800.9993757800314" y="0" /><text text-anchor="middle" x="400.4996878900157" y="-4" transform="rotate(180 400.4996878900157 0)" filter="url(#glow)" style="fill: #fff" >generate_ok {:id "ffc8a249-85f0-4540-b39e-a2e25…</text><text text-anchor="middle" x="400.4996878900157" y="-4" transform="rotate(180 400.4996878900157 0)" >generate_ok {:id "ffc8a249-85f0-4540-b39e-a2e25…</text></g><g transform="translate(700.0 490.0) rotate(178.0908475670036) " ><rect x="0" y="-2.5" height="5" width="596.3332407921454" fill="#81BFFC" ><title >n0 → c6 {:type "generate_ok", :msg_id 2, :id "6543fe4f-d798-4f18-9288-95f4855a3274"}</title></rect><use xlink:href="#ahead" x="600.3332407921454" y="0" /><text text-anchor="middle" x="300.1666203960727" y="-4" transform="rotate(180 300.1666203960727 0)" filter="url(#glow)" style="fill: #fff" >generate_ok {:id "6543fe4f-d798-4f18-9288-95f48…</text><text text-anchor="middle" x="300.1666203960727" y="-4" transform="rotate(180 300.1666203960727 0)" >generate_ok {:id "6543fe4f-d798-4f18-9288-95f48…</text></g><g transform="translate(500.0 530.0) rotate(2.862405226111748) " ><rect x="0" y="-2.5" height="5" width="396.4996878900157" fill="#81BFFC" ><title >c8 → n1 {:type "generate", :msg_id 3}</title></rect><use xlink:href="#ahead" x="400.4996878900157" y="0" /><text text-anchor="middle" x="200.24984394500785" y="-4" transform="" filter="url(#glow)" style="fill: #fff" >generate {}</text><text text-anchor="middle" x="200.24984394500785" y="-4" transform="" >generate {}</text></g><g transform="translate(900.0 570.0) rotate(177.13759477388828) " ><rect x="0" y="-2.5" height="5" width="396.4996878900157" fill="#81BFFC" ><title >n1 → c8 {:type "generate_ok", :msg_id 3, :id "6db4235c-bd50-4a3c-90c4-04b6bc63b99d"}</title></rect><use xlink:href="#ahead" x="400.4996878900157" y="0" /><text text-anchor="middle" x="200.24984394500785" y="-4" transform="rotate(180 200.24984394500785 0)" filter="url(#glow)" style="fill: #fff" >generate_ok {:id "6db4235c-bd50-4a3c-90c4-04b6b…</text><text text-anchor="middle" x="200.24984394500785" y="-4" transform="rotate(180 200.24984394500785 0)" >generate_ok {:id "6db4235c-bd50-4a3c-90c4-04b6b…</text></g><g transform="translate(300.0 610.0) rotate(1.4320961841646465) " ><rect x="0" y="-2.5" height="5" width="796.2499609497023" fill="#81BFFC" ><title >c7 → n2 {:type "generate", :msg_id 3}</title></rect><use xlink:href="#ahead" x="800.2499609497023" y="0" /><text text-anchor="middle" x="400.12498047485116" y="-4" transform="" filter="url(#glow)" style="fill: #fff" >generate {}</text><text text-anchor="middle" x="400.12498047485116" y="-4" transform="" >generate {}</text></g><g transform="translate(1100.0 650.0) rotate(177.13759477388828) " ><rect x="0" y="-2.5" height="5" width="796.9993757800314" fill="#81BFFC" ><title >n2 → c7 {:type "generate_ok", :msg_id 3, :id "59774a25-69db-473a-bc1d-96e5932c1393"}</title></rect><use xlink:href="#ahead" x="800.9993757800314" y="0" /><text text-anchor="middle" x="400.4996878900157" y="-4" transform="rotate(180 400.4996878900157 0)" filter="url(#glow)" style="fill: #fff" >generate_ok {:id "59774a25-69db-473a-bc1d-96e59…</text><text text-anchor="middle" x="400.4996878900157" y="-4" transform="rotate(180 400.4996878900157 0)" >generate_ok {:id "59774a25-69db-473a-bc1d-96e59…</text></g><g transform="translate(100.0 670.0) rotate(3.8140748342903543) " ><rect x="0" y="-2.5" height="5" width="597.3318551349163" fill="#81BFFC" ><title >c6 → n0 {:type "generate", :msg_id 3}</title></rect><use xlink:href="#ahead" x="601.3318551349163" y="0" /><text text-anchor="middle" x="300.66592756745814" y="-4" transform="" filter="url(#glow)" style="fill: #fff" >generate {}</text><text text-anchor="middle" x="300.66592756745814" y="-4" transform="" >generate {}</text></g><g transform="translate(700.0 730.0) rotate(178.0908475670036) " ><rect x="0" y="-2.5" height="5" width="596.3332407921454" fill="#81BFFC" ><title >n0 → c6 {:type "generate_ok", :msg_id 3, :id "07ddeb71-87c8-482e-a4ca-95f1098796ca"}</title></rect><use xlink:href="#ahead" x="600.3332407921454" y="0" /><text text-anchor="middle" x="300.1666203960727" y="-4" transform="rotate(180 300.1666203960727 0)" filter="url(#glow)" style="fill: #fff" >generate_ok {:id "07ddeb71-87c8-482e-a4ca-95f10…</text><text text-anchor="middle" x="300.1666203960727" y="-4" transform="rotate(180 300.1666203960727 0)" >generate_ok {:id "07ddeb71-87c8-482e-a4ca-95f10…</text></g><g transform="translate(300.0 770.0) rotate(1.4320961841646465) " ><rect x="0" y="-2.5" height="5" width="796.2499609497023" fill="#81BFFC" ><title >c7 → n2 {:type "generate", :msg_id 4}</title></rect><use xlink:href="#ahead" x="800.2499609497023" y="0" /><text text-anchor="middle" x="400.12498047485116" y="-4" transform="" filter="url(#glow)" style="fill: #fff" >generate {}</text><text text-anchor="middle" x="400.12498047485116" y="-4" transform="" >generate {}</text></g><g transform="translate(100.0 810.0) rotate(1.9091524329963763) " ><rect x="0" y="-2.5" height="5" width="596.3332407921454" fill="#81BFFC" ><title >c6 → n0 {:type "generate", :msg_id 4}</title></rect><use xlink:href="#ahead" x="600.3332407921454" y="0" /><text text-anchor="middle" x="300.1666203960727" y="-4" transform="" filter="url(#glow)" style="fill: #fff" >generate {}</text><text text-anchor="middle" x="300.1666203960727" y="-4" transform="" >generate {}</text></g><g transform="translate(1100.0 850.0) rotate(178.56790381583536) " ><rect x="0" y="-2.5" height="5" width="796.2499609497023" fill="#81BFFC" ><title >n2 → c7 {:type "generate_ok", :msg_id 4, :id "5c62acb9-21ff-4085-a2f8-9338ccd06187"}</title></rect><use xlink:href="#ahead" x="800.2499609497023" y="0" /><text text-anchor="middle" x="400.12498047485116" y="-4" transform="rotate(180 400.12498047485116 0)" filter="url(#glow)" style="fill: #fff" >generate_ok {:id "5c62acb9-21ff-4085-a2f8-9338c…</text><text text-anchor="middle" x="400.12498047485116" y="-4" transform="rotate(180 400.12498047485116 0)" >generate_ok {:id "5c62acb9-21ff-4085-a2f8-9338c…</text></g><g transform="translate(700.0 890.0) rotate(176.18592516570965) " ><rect x="0" y="-2.5" height="5" width="597.3318551349163" fill="#81BFFC" ><title >n0 → c6 {:type "generate_ok", :msg_id 4, :id "4b440202-fe5e-432a-9af1-001131634dcc"}</title></rect><use xlink:href="#ahead" x="601.3318551349163" y="0" /><text text-anchor="middle" x="300.66592756745814" y="-4" transform="rotate(180 300.66592756745814 0)" filter="url(#glow)" style="fill: #fff" >generate_ok {:id "4b440202-fe5e-432a-9af1-00113…</text><text text-anchor="middle" x="300.66592756745814" y="-4" transform="rotate(180 300.66592756745814 0)" >generate_ok {:id "4b440202-fe5e-432a-9af1-00113…</text></g><g transform="translate(500.0 910.0) rotate(5.710593137499643) " ><rect x="0" y="-2.5" height="5" width="397.9950248448356" fill="#81BFFC" ><title >c8 → n1 {:type "generate", :msg_id 4}</title></rect><use xlink:href="#ahead" x="401.9950248448356" y="0" /><text text-anchor="middle" x="200.9975124224178" y="-4" transform="" filter="url(#glow)" style="fill: #fff" >generate {}</text><text text-anchor="middle" x="200.9975124224178" y="-4" transform="" >generate {}</text></g><g transform="translate(900.0 970.0) rotate(177.13759477388828) " ><rect x="0" y="-2.5" height="5" width="396.4996878900157" fill="#81BFFC" ><title >n1 → c8 {:type "generate_ok", :msg_id 4, :id "18c02913-febe-4758-8381-eee422a3acda"}</title></rect><use xlink:href="#ahead" x="400.4996878900157" y="0" /><text text-anchor="middle" x="200.24984394500785" y="-4" transform="rotate(180 200.24984394500785 0)" filter="url(#glow)" style="fill: #fff" >generate_ok {:id "18c02913-febe-4758-8381-eee42…</text><text text-anchor="middle" x="200.24984394500785" y="-4" transform="rotate(180 200.24984394500785 0)" >generate_ok {:id "18c02913-febe-4758-8381-eee42…</text></g><g transform="translate(300.0 1010.0) rotate(1.4320961841646465) " ><rect x="0" y="-2.5" height="5" width="796.2499609497023" fill="#81BFFC" ><title >c7 → n2 {:type "generate", :msg_id 5}</title></rect><use xlink:href="#ahead" x="800.2499609497023" y="0" /><text text-anchor="middle" x="400.12498047485116" y="-4" transform="" filter="url(#glow)" style="fill: #fff" >generate {}</text><text text-anchor="middle" x="400.12498047485116" y="-4" transform="" >generate {}</text></g><g transform="translate(100.0 1050.0) rotate(1.9091524329963763) " ><rect x="0" y="-2.5" height="5" width="596.3332407921454" fill="#81BFFC" ><title >c6 → n0 {:type "generate", :msg_id 5}</title></rect><use xlink:href="#ahead" x="600.3332407921454" y="0" /><text text-anchor="middle" x="300.1666203960727" y="-4" transform="" filter="url(#glow)" style="fill: #fff" >generate {}</text><text text-anchor="middle" x="300.1666203960727" y="-4" transform="" >generate {}</text></g><g transform="translate(500.0 1090.0) rotate(8.530765609948133) " ><rect x="0" y="-2.5" height="5" width="400.4749683231337" fill="#81BFFC" ><title >c8 → n1 {:type "generate", :msg_id 5}</title></rect><use xlink:href="#ahead" x="404.4749683231337" y="0" /><text text-anchor="middle" x="202.23748416156684" y="-4" transform="" filter="url(#glow)" style="fill: #fff" >generate {}</text><text text-anchor="middle" x="202.23748416156684" y="-4" transform="" >generate {}</text></g><g transform="translate(1100.0 1110.0) rotate(175.71084667118097) " ><rect x="0" y="-2.5" height="5" width="798.2468448052632" fill="#81BFFC" ><title >n2 → c7 {:type "generate_ok", :msg_id 5, :id "54f98b01-6344-49dc-b28d-e8f86ebf76f1"}</title></rect><use xlink:href="#ahead" x="802.2468448052632" y="0" /><text text-anchor="middle" x="401.1234224026316" y="-4" transform="rotate(180 401.1234224026316 0)" filter="url(#glow)" style="fill: #fff" >generate_ok {:id "54f98b01-6344-49dc-b28d-e8f86…</text><text text-anchor="middle" x="401.1234224026316" y="-4" transform="rotate(180 401.1234224026316 0)" >generate_ok {:id "54f98b01-6344-49dc-b28d-e8f86…</text></g><g transform="translate(700.0 1130.0) rotate(174.28940686250036) " ><rect x="0" y="-2.5" height="5" width="598.9925372672534" fill="#81BFFC" ><title >n0 → c6 {:type "generate_ok", :msg_id 5, :id "b54c90c8-727c-4a55-972b-4dea53822127"}</title></rect><use xlink:href="#ahead" x="602.9925372672534" y="0" /><text text-anchor="middle" x="301.4962686336267" y="-4" transform="rotate(180 301.4962686336267 0)" filter="url(#glow)" style="fill: #fff" >generate_ok {:id "b54c90c8-727c-4a55-972b-4dea5…</text><text text-anchor="middle" x="301.4962686336267" y="-4" transform="rotate(180 301.4962686336267 0)" >generate_ok {:id "b54c90c8-727c-4a55-972b-4dea5…</text></g><g transform="translate(900.0 1210.0) rotate(177.13759477388828) " ><rect x="0" y="-2.5" height="5" width="396.4996878900157" fill="#81BFFC" ><title >n1 → c8 {:type "generate_ok", :msg_id 5, :id "11f30fc6-3f05-48ad-939f-f345b5aca6dc"}</title></rect><use xlink:href="#ahead" x="400.4996878900157" y="0" /><text text-anchor="middle" x="200.24984394500785" y="-4" transform="rotate(180 200.24984394500785 0)" filter="url(#glow)" style="fill: #fff" >generate_ok {:id "11f30fc6-3f05-48ad-939f-f345b…</text><text text-anchor="middle" x="200.24984394500785" y="-4" transform="rotate(180 200.24984394500785 0)" >generate_ok {:id "11f30fc6-3f05-48ad-939f-f345b…</text></g><g transform="translate(300.0 1250.0) rotate(1.4320961841646465) " ><rect x="0" y="-2.5" height="5" width="796.2499609497023" fill="#81BFFC" ><title >c7 → n2 {:type "generate", :msg_id 6}</title></rect><use xlink:href="#ahead" x="800.2499609497023" y="0" /><text text-anchor="middle" x="400.12498047485116" y="-4" transform="" filter="url(#glow)" style="fill: #fff" >generate {}</text><text text-anchor="middle" x="400.12498047485116" y="-4" transform="" >generate {}</text></g><g transform="translate(100.0 1290.0) rotate(3.8140748342903543) " ><rect x="0" y="-2.5" height="5" width="597.3318551349163" fill="#81BFFC" ><title >c6 → n0 {:type "generate", :msg_id 6}</title></rect><use xlink:href="#ahead" x="601.3318551349163" y="0" /><text text-anchor="middle" x="300.66592756745814" y="-4" transform="" filter="url(#glow)" style="fill: #fff" >generate {}</text><text text-anchor="middle" x="300.66592756745814" y="-4" transform="" >generate {}</text></g><g transform="translate(1100.0 1310.0) rotate(177.13759477388828) " ><rect x="0" y="-2.5" height="5" width="796.9993757800314" fill="#81BFFC" ><title >n2 → c7 {:type "generate_ok", :msg_id 6, :id "259612cd-95d5-4295-b0d4-58c8dc9dfa03"}</title></rect><use xlink:href="#ahead" x="800.9993757800314" y="0" /><text text-anchor="middle" x="400.4996878900157" y="-4" transform="rotate(180 400.4996878900157 0)" filter="url(#glow)" style="fill: #fff" >generate_ok {:id "259612cd-95d5-4295-b0d4-58c8d…</text><text text-anchor="middle" x="400.4996878900157" y="-4" transform="rotate(180 400.4996878900157 0)" >generate_ok {:id "259612cd-95d5-4295-b0d4-58c8d…</text></g><g transform="translate(700.0 1370.0) rotate(178.0908475670036) " ><rect x="0" y="-2.5" height="5" width="596.3332407921454" fill="#81BFFC" ><title >n0 → c6 {:type "generate_ok", :msg_id 6, :id "2f003840-7374-466a-aa53-c7804b7085cf"}</title></rect><use xlink:href="#ahead" x="600.3332407921454" y="0" /><text text-anchor="middle" x="300.1666203960727" y="-4" transform="rotate(180 300.1666203960727 0)" filter="url(#glow)" style="fill: #fff" >generate_ok {:id "2f003840-7374-466a-aa53-c7804…</text><text text-anchor="middle" x="300.1666203960727" y="-4" transform="rotate(180 300.1666203960727 0)" >generate_ok {:id "2f003840-7374-466a-aa53-c7804…</text></g><g transform="translate(500.0 1410.0) rotate(2.862405226111748) " ><rect x="0" y="-2.5" height="5" width="396.4996878900157" fill="#81BFFC" ><title >c8 → n1 {:type "generate", :msg_id 6}</title></rect><use xlink:href="#ahead" x="400.4996878900157" y="0" /><text text-anchor="middle" x="200.24984394500785" y="-4" transform="" filter="url(#glow)" style="fill: #fff" >generate {}</text><text text-anchor="middle" x="200.24984394500785" y="-4" transform="" >generate {}</text></g><g transform="translate(900.0 1450.0) rotate(177.13759477388828) " ><rect x="0" y="-2.5" height="5" width="396.4996878900157" fill="#81BFFC" ><title >n1 → c8 {:type "generate_ok", :msg_id 6, :id "b1f4cf9a-b786-4fc0-bbcc-17d7271c330c"}</title></rect><use xlink:href="#ahead" x="400.4996878900157" y="0" /><text text-anchor="middle" x="200.24984394500785" y="-4" transform="rotate(180 200.24984394500785 0)" filter="url(#glow)" style="fill: #fff" >generate_ok {:id "b1f4cf9a-b786-4fc0-bbcc-17d72…</text><text text-anchor="middle" x="200.24984394500785" y="-4" transform="rotate(180 200.24984394500785 0)" >generate_ok {:id "b1f4cf9a-b786-4fc0-bbcc-17d72…</text></g></g></svg>