<?xml version="1.0" encoding="UTF-8"?><svg xmlns:svg="http://www.w3.org/2000/svg" xmlns="http://www.w3.org/2000/svg" xmlns:xlink="http://www.w3.org/1999/xlink" version="2.0" width="1200" height="1580" ><style >
svg {
  font-family: Helvetica, Arial, sans-serif;
  font-size: 11px;
}
rect {
  stroke-linecap: butt;
  stroke-width: 3;
  stroke: #fff;
/*  stroke-opacity: 1; */
}
rect:hover {
  stroke: #fff;
/*  stroke-opacity: 1; /*
}
polygon { fill: #000; }</style><defs ><polygon id="ahead" points="0 0, -12 4, -12 -4" /><filter id="glow" x="0" y="0" ><feGaussianBlur in="SourceAlpha" stdDeviation="2" result="blurred" /><feFlood flood-color="#fff" /><feComposite operator="in" in2="blurred" /><feComponentTransfer ><feFuncA type="linear" slope="10" intercept="0" /></feComponentTransfer><feMerge ><feMergeNode /><feMergeNode in="SourceGraphic" /></feMerge></filter></defs><g ><text x="100.0" y="20.0" text-anchor="middle" alignment-baseline="middle" fill="#000" >c6</text><text x="100.0" y="1020.0" text-anchor="middle" alignment-baseline="middle" fill="#aaa" >c6</text><text x="300.0" y="20.0" text-anchor="middle" alignment-baseline="middle" fill="#000" >c7</text><text x="300.0" y="1020.0" text-anchor="middle" alignment-baseline="middle" fill="#aaa" >c7</text><text x="500.0" y="20.0" text-anchor="middle" alignment-baseline="middle" fill="#000" >c8</text><text x="500.0" y="1020.0" text-anchor="middle" alignment-baseline="middle" fill="#aaa" >c8</text><text x="700.0" y="20.0" text-anchor="middle" alignment-baseline="middle" fill="#000" >n0</text><text x="700.0" y="1020.0" text-anchor="middle" alignment-baseline="middle" fill="#aaa" >n0</text><text x="900.0" y="20.0" text-anchor="middle" alignment-baseline="middle" fill="#000" >n1</text><text x="900.0" y="1020.0" text-anchor="middle" alignment-baseline="middle" fill="#aaa" >n1</text><text x="1100.0" y="20.0" text-anchor="middle" alignment-baseline="middle" fill="#000" >n2</text><text x="1100.0" y="1020.0" text-anchor="middle" alignment-baseline="middle" fill="#aaa" >n2</text></g><g ><line stroke="#ccc" x1="100.0" y1="30.0" x2="100.0" y2="1490.0" /><line stroke="#ccc" x1="300.0" y1="30.0" x2="300.0" y2="1490.0" /><line stroke="#ccc" x1="500.0" y1="30.0" x2="500.0" y2="1490.0" /><line stroke="#ccc" x1="700.0" y1="30.0" x2="700.0" y2="1490.0" /><line stroke="#ccc" x1="900.0" y1="30.0" x2="900.0" y2="1490.0" /><line stroke="#ccc" x1="1100.0" y1="30.0" x2="1100.0" y2="1490.0" /></g><g ><g transform="translate(100.0 50.0) rotate(2.29061004263853) " ><rect x="0" y="-2.5" height="5" width="996.7996802557443" fill="#81BFFC" ><title >c6 → n2 {:type "generate", :msg_id 1}</title></rect><use xlink:href="#ahead" x="1000.7996802557443" y="0" /><text text-anchor="middle" x="500.39984012787215" y="-4" transform="" filter="url(#glow)" style="fill: #fff" >generate {}</text><text text-anchor="middle" x="500.39984012787215" y="-4" transform="" >generate {}</text></g><g transform="translate(300.0 70.0) rotate(5.710593137499643) " ><rect x="0" y="-2.5" height="5" width="397.9950248448356" fill="#81BFFC" ><title >c7 → n0 {:type "generate", :msg_id 1}</title></rect><use xlink:href="#ahead" x="401.9950248448356" y="0" /><text text-anchor="middle" x="200.9975124224178" y="-4" transform="" filter="url(#glow)" style="fill: #fff" >generate {}</text><text text-anchor="middle" x="200.9975124224178" y="-4" transform="" >generate {}</text></g><g transform="translate(500.0 130.0) rotate(5.710593137499643) " ><rect x="0" y="-2.5" height="5" width="397.9950248448356" fill="#81BFFC" ><title >c8 → n1 {:type "generate", :msg_id 1}</title></rect><use xlink:href="#ahead" x="401.9950248448356" y="0" /><text text-anchor="middle" x="200.9975124224178" y="-4" transform="" filter="url(#glow)" style="fill: #fff" >generate {}</text><text text-anchor="middle" x="200.9975124224178" y="-4" transform="" >generate {}</text></g><g transform="translate(700.0 190.0) rotate(177.13759477388828) " ><rect x="0" y="-2.5" height="5" width="396.4996878900157" fill="#81BFFC" ><title >n0 → c7 {:type "generate_ok", :msg_id 1, :in_reply_to nil, :echo nil, :id "cb77a6c6-6dc7-4885-8e65-185793d9bafd"}</title></rect><use xlink:href="#ahead" x="400.4996878900157" y="0" /><text text-anchor="middle" x="200.24984394500785" y="-4" transform="rotate(180 200.24984394500785 0)" filter="url(#glow)" style="fill: #fff" >generate_ok {:echo nil, :id "cb77a6c6-6dc7-4885…</text><text text-anchor="middle" x="200.24984394500785" y="-4" transform="rotate(180 200.24984394500785 0)" >generate_ok {:echo nil, :id "cb77a6c6-6dc7-4885…</text></g><g transform="translate(1100.0 150.0) rotate(175.42607874009914) " ><rect x="0" y="-2.5" height="5" width="999.1948963187562" fill="#81BFFC" ><title >n2 → c6 {:type "generate_ok", :msg_id 1, :in_reply_to nil, :echo nil, :id "11f3578c-5471-4d42-8f3a-49b325abd163"}</title></rect><use xlink:href="#ahead" x="1003.1948963187562" y="0" /><text text-anchor="middle" x="501.5974481593781" y="-4" transform="rotate(180 501.5974481593781 0)" filter="url(#glow)" style="fill: #fff" >generate_ok {:echo nil, :id "11f3578c-5471-4d42…</text><text text-anchor="middle" x="501.5974481593781" y="-4" transform="rotate(180 501.5974481593781 0)" >generate_ok {:echo nil, :id "11f3578c-5471-4d42…</text></g><g transform="translate(900.0 250.0) rotate(177.13759477388828) " ><rect x="0" y="-2.5" height="5" width="396.4996878900157" fill="#81BFFC" ><title >n1 → c8 {:type "generate_ok", :msg_id 1, :in_reply_to nil, :echo nil, :id "0d8444f8-f3c9-4a27-9c01-9142a0cfe8c3"}</title></rect><use xlink:href="#ahead" x="400.4996878900157" y="0" /><text text-anchor="middle" x="200.24984394500785" y="-4" transform="rotate(180 200.24984394500785 0)" filter="url(#glow)" style="fill: #fff" >generate_ok {:echo nil, :id "0d8444f8-f3c9-4a27…</text><text text-anchor="middle" x="200.24984394500785" y="-4" transform="rotate(180 200.24984394500785 0)" >generate_ok {:echo nil, :id "0d8444f8-f3c9-4a27…</text></g><g transform="translate(500.0 290.0) rotate(2.862405226111748) " ><rect x="0" y="-2.5" height="5" width="396.4996878900157" fill="#81BFFC" ><title >c8 → n1 {:type "generate", :msg_id 2}</title></rect><use xlink:href="#ahead" x="400.4996878900157" y="0" /><text text-anchor="middle" x="200.24984394500785" y="-4" transform="" filter="url(#glow)" style="fill: #fff" >generate {}</text><text text-anchor="middle" x="200.24984394500785" y="-4" transform="" >generate {}</text></g><g transform="translate(900.0 330.0) rotate(177.13759477388828) " ><rect x="0" y="-2.5" height="5" width="396.4996878900157" fill="#81BFFC" ><title >n1 → c8 {:type "generate_ok", :msg_id 2, :in_reply_to nil, :echo nil, :id "a7093cee-df45-4eca-baad-fbb1fdaa966a"}</title></rect><use xlink:href="#ahead" x="400.4996878900157" y="0" /><text text-anchor="middle" x="200.24984394500785" y="-4" transform="rotate(180 200.24984394500785 0)" filter="url(#glow)" style="fill: #fff" >generate_ok {:echo nil, :id "a7093cee-df45-4eca…</text><text text-anchor="middle" x="200.24984394500785" y="-4" transform="rotate(180 200.24984394500785 0)" >generate_ok {:echo nil, :id "a7093cee-df45-4eca…</text></g><g transform="translate(100.0 370.0) rotate(2.29061004263853) " ><rect x="0" y="-2.5" height="5" width="996.7996802557443" fill="#81BFFC" ><title >c6 → n2 {:type "generate", :msg_id 2}</title></rect><use xlink:href="#ahead" x="1000.7996802557443" y="0" /><text text-anchor="middle" x="500.39984012787215" y="-4" transform="" filter="url(#glow)" style="fill: #fff" >generate {}</text><text text-anchor="middle" x="500.39984012787215" y="-4" transform="" >generate {}</text></g><g transform="translate(300.0 390.0) rotate(5.710593137499643) " ><rect x="0" y="-2.5" height="5" width="397.9950248448356" fill="#81BFFC" ><title >c7 → n0 {:type "generate", :msg_id 2}</title></rect><use xlink:href="#ahead" x="401.9950248448356" y="0" /><text text-anchor="middle" x="200.9975124224178" y="-4" transform="" filter="url(#glow)" style="fill: #fff" >generate {}</text><text text-anchor="middle" x="200.9975124224178" y="-4" transform="" >generate {}</text></g><g transform="translate(1100.0 450.0) rotate(177.70938995736148) " ><rect x="0" y="-2.5" height="5" width="996.7996802557443" fill="#81BFFC" ><title >n2 → c6 {:type "generate_ok", :msg_id 2, :in_reply_to nil, :echo nil, :id "8c8e7568-5715-429b-ba5f-a48d59915194"}</title></rect><use xlink:href="#ahead" x="1000.7996802557443" y="0" /><text text-anchor="middle" x="500.39984012787215" y="-4" transform="rotate(180 500.39984012787215 0)" filter="url(#glow)" style="fill: #fff" >generate_ok {:echo nil, :id "8c8e7568-5715-429b…</text><text text-anchor="middle" x="500.39984012787215" y="-4" transform="rotate(180 500.39984012787215 0)" >generate_ok {:echo nil, :id "8c8e7568-5715-429b…</text></g><g transform="translate(700.0 470.0) rotate(174.28940686250036) " ><rect x="0" y="-2.5" height="5" width="397.9950248448356" fill="#81BFFC" ><title >n0 → c7 {:type "generate_ok", :msg_id 2, :in_reply_to nil, :echo nil, :id "b3684a28-7ae3-48aa-bbfb-69ba607481c0"}</title></rect><use xlink:href="#ahead" x="401.9950248448356" y="0" /><text text-anchor="middle" x="200.9975124224178" y="-4" transform="rotate(180 200.9975124224178 0)" filter="url(#glow)" style="fill: #fff" >generate_ok {:echo nil, :id "b3684a28-7ae3-48aa…</text><text text-anchor="middle" x="200.9975124224178" y="-4" transform="rotate(180 200.9975124224178 0)" >generate_ok {:echo nil, :id "b3684a28-7ae3-48aa…</text></g><g transform="translate(500.0 530.0) rotate(2.862405226111748) " ><rect x="0" y="-2.5" height="5" width="396.4996878900157" fill="#81BFFC" ><title >c8 → n1 {:type "generate", :msg_id 3}</title></rect><use xlink:href="#ahead" x="400.4996878900157" y="0" /><text text-anchor="middle" x="200.24984394500785" y="-4" transform="" filter="url(#glow)" style="fill: #fff" >generate {}</text><text text-anchor="middle" x="200.24984394500785" y="-4" transform="" >generate {}</text></g><g transform="translate(900.0 570.0) rotate(177.13759477388828) " ><rect x="0" y="-2.5" height="5" width="396.4996878900157" fill="#81BFFC" ><title >n1 → c8 {:type "generate_ok", :msg_id 3, :in_reply_to nil, :echo nil, :id "294062e4-95aa-4c9e-aaca-4528ef5a40c8"}</title></rect><use xlink:href="#ahead" x="400.4996878900157" y="0" /><text text-anchor="middle" x="200.24984394500785" y="-4" transform="rotate(180 200.24984394500785 0)" filter="url(#glow)" style="fill: #fff" >generate_ok {:echo nil, :id "294062e4-95aa-4c9e…</text><text text-anchor="middle" x="200.24984394500785" y="-4" transform="rotate(180 200.24984394500785 0)" >generate_ok {:echo nil, :id "294062e4-95aa-4c9e…</text></g><g transform="translate(100.0 610.0) rotate(1.1457628381751035) " ><rect x="0" y="-2.5" height="5" width="996.199980003999" fill="#81BFFC" ><title >c6 → n2 {:type "generate", :msg_id 3}</title></rect><use xlink:href="#ahead" x="1000.199980003999" y="0" /><text text-anchor="middle" x="500.0999900019995" y="-4" transform="" filter="url(#glow)" style="fill: #fff" >generate {}</text><text text-anchor="middle" x="500.0999900019995" y="-4" transform="" >generate {}</text></g><g transform="translate(1100.0 650.0) rotate(178.8542371618249) " ><rect x="0" y="-2.5" height="5" width="996.199980003999" fill="#81BFFC" ><title >n2 → c6 {:type "generate_ok", :msg_id 3, :in_reply_to nil, :echo nil, :id "21b16ed7-6956-4e33-a881-4ef9641ef1e7"}</title></rect><use xlink:href="#ahead" x="1000.199980003999" y="0" /><text text-anchor="middle" x="500.0999900019995" y="-4" transform="rotate(180 500.0999900019995 0)" filter="url(#glow)" style="fill: #fff" >generate_ok {:echo nil, :id "21b16ed7-6956-4e33…</text><text text-anchor="middle" x="500.0999900019995" y="-4" transform="rotate(180 500.0999900019995 0)" >generate_ok {:echo nil, :id "21b16ed7-6956-4e33…</text></g><g transform="translate(300.0 690.0) rotate(2.862405226111748) " ><rect x="0" y="-2.5" height="5" width="396.4996878900157" fill="#81BFFC" ><title >c7 → n0 {:type "generate", :msg_id 3}</title></rect><use xlink:href="#ahead" x="400.4996878900157" y="0" /><text text-anchor="middle" x="200.24984394500785" y="-4" transform="" filter="url(#glow)" style="fill: #fff" >generate {}</text><text text-anchor="middle" x="200.24984394500785" y="-4" transform="" >generate {}</text></g><g transform="translate(700.0 730.0) rotate(177.13759477388828) " ><rect x="0" y="-2.5" height="5" width="396.4996878900157" fill="#81BFFC" ><title >n0 → c7 {:type "generate_ok", :msg_id 3, :in_reply_to nil, :echo nil, :id "025ad1c6-156a-4d6e-b9c5-90b0d02b18cd"}</title></rect><use xlink:href="#ahead" x="400.4996878900157" y="0" /><text text-anchor="middle" x="200.24984394500785" y="-4" transform="rotate(180 200.24984394500785 0)" filter="url(#glow)" style="fill: #fff" >generate_ok {:echo nil, :id "025ad1c6-156a-4d6e…</text><text text-anchor="middle" x="200.24984394500785" y="-4" transform="rotate(180 200.24984394500785 0)" >generate_ok {:echo nil, :id "025ad1c6-156a-4d6e…</text></g><g transform="translate(500.0 770.0) rotate(2.862405226111748) " ><rect x="0" y="-2.5" height="5" width="396.4996878900157" fill="#81BFFC" ><title >c8 → n1 {:type "generate", :msg_id 4}</title></rect><use xlink:href="#ahead" x="400.4996878900157" y="0" /><text text-anchor="middle" x="200.24984394500785" y="-4" transform="" filter="url(#glow)" style="fill: #fff" >generate {}</text><text text-anchor="middle" x="200.24984394500785" y="-4" transform="" >generate {}</text></g><g transform="translate(900.0 810.0) rotate(177.13759477388828) " ><rect x="0" y="-2.5" height="5" width="396.4996878900157" fill="#81BFFC" ><title >n1 → c8 {:type "generate_ok", :msg_id 4, :in_reply_to nil, :echo nil, :id "c3969f2e-e619-46fa-9901-764e8c723b5a"}</title></rect><use xlink:href="#ahead" x="400.4996878900157" y="0" /><text text-anchor="middle" x="200.24984394500785" y="-4" transform="rotate(180 200.24984394500785 0)" filter="url(#glow)" style="fill: #fff" >generate_ok {:echo nil, :id "c3969f2e-e619-46fa…</text><text text-anchor="middle" x="200.24984394500785" y="-4" transform="rotate(180 200.24984394500785 0)" >generate_ok {:echo nil, :id "c3969f2e-e619-46fa…</text></g><g transform="translate(300.0 850.0) rotate(2.862405226111748) " ><rect x="0" y="-2.5" height="5" width="396.4996878900157" fill="#81BFFC" ><title >c7 → n0 {:type "generate", :msg_id 4}</title></rect><use xlink:href="#ahead" x="400.4996878900157" y="0" /><text text-anchor="middle" x="200.24984394500785" y="-4" transform="" filter="url(#glow)" style="fill: #fff" >generate {}</text><text text-anchor="middle" x="200.24984394500785" y="-4" transform="" >generate {}</text></g><g transform="translate(700.0 890.0) rotate(177.13759477388828) " ><rect x="0" y="-2.5" height="5" width="396.4996878900157" fill="#81BFFC" ><title >n0 → c7 {:type "generate_ok", :msg_id 4, :in_reply_to nil, :echo nil, :id "95118f07-61a8-4981-bb10-f7aefe9a2701"}</title></rect><use xlink:href="#ahead" x="400.4996878900157" y="0" /><text text-anchor="middle" x="200.24984394500785" y="-4" transform="rotate(180 200.24984394500785 0)" filter="url(#glow)" style="fill: #fff" >generate_ok {:echo nil, :id "95118f07-61a8-4981…</text><text text-anchor="middle" x="200.24984394500785" y="-4" transform="rotate(180 200.24984394500785 0)" >generate_ok {:echo nil, :id "95118f07-61a8-4981…</text></g><g transform="translate(100.0 930.0) rotate(1.1457628381751035) " ><rect x="0" y="-2.5" height="5" width="996.199980003999" fill="#81BFFC" ><title >c6 → n2 {:type "generate", :msg_id 4}</title></rect><use xlink:href="#ahead" x="1000.199980003999" y="0" /><text text-anchor="middle" x="500.0999900019995" y="-4" transform="" filter="url(#glow)" style="fill: #fff" >generate {}</text><text text-anchor="middle" x="500.0999900019995" y="-4" transform="" >generate {}</text></g><g transform="translate(1100.0 970.0) rotate(178.8542371618249) " ><rect x="0" y="-2.5" height="5" width="996.199980003999" fill="#81BFFC" ><title >n2 → c6 {:type "generate_ok", :msg_id 4, :in_reply_to nil, :echo nil, :id "6bfd5e8b-b30f-4b1c-9839-bb660792ce95"}</title></rect><use xlink:href="#ahead" x="1000.199980003999" y="0" /><text text-anchor="middle" x="500.0999900019995" y="-4" transform="rotate(180 500.0999900019995 0)" filter="url(#glow)" style="fill: #fff" >generate_ok {:echo nil, :id "6bfd5e8b-b30f-4b1c…</text><text text-anchor="middle" x="500.0999900019995" y="-4" transform="rotate(180 500.0999900019995 0)" >generate_ok {:echo nil, :id "6bfd5e8b-b30f-4b1c…</text></g><g transform="translate(500.0 1010.0) rotate(2.862405226111748) " ><rect x="0" y="-2.5" height="5" width="396.4996878900157" fill="#81BFFC" ><title >c8 → n1 {:type "generate", :msg_id 5}</title></rect><use xlink:href="#ahead" x="400.4996878900157" y="0" /><text text-anchor="middle" x="200.24984394500785" y="-4" transform="" filter="url(#glow)" style="fill: #fff" >generate {}</text><text text-anchor="middle" x="200.24984394500785" y="-4" transform="" >generate {}</text></g><g transform="translate(900.0 1050.0) rotate(177.13759477388828) " ><rect x="0" y="-2.5" height="5" width="396.4996878900157" fill="#81BFFC" ><title >n1 → c8 {:type "generate_ok", :msg_id 5, :in_reply_to nil, :echo nil, :id "5f8ba4c0-cf4f-4c14-816d-1ea96802ba27"}</title></rect><use xlink:href="#ahead" x="400.4996878900157" y="0" /><text text-anchor="middle" x="200.24984394500785" y="-4" transform="rotate(180 200.24984394500785 0)" filter="url(#glow)" style="fill: #fff" >generate_ok {:echo nil, :id "5f8ba4c0-cf4f-4c14…</text><text text-anchor="middle" x="200.24984394500785" y="-4" transform="rotate(180 200.24984394500785 0)" >generate_ok {:echo nil, :id "5f8ba4c0-cf4f-4c14…</text></g><g transform="translate(300.0 1090.0) rotate(2.862405226111748) " ><rect x="0" y="-2.5" height="5" width="396.4996878900157" fill="#81BFFC" ><title >c7 → n0 {:type "generate", :msg_id 5}</title></rect><use xlink:href="#ahead" x="400.4996878900157" y="0" /><text text-anchor="middle" x="200.24984394500785" y="-4" transform="" filter="url(#glow)" style="fill: #fff" >generate {}</text><text text-anchor="middle" x="200.24984394500785" y="-4" transform="" >generate {}</text></g><g transform="translate(700.0 1130.0) rotate(177.13759477388828) " ><rect x="0" y="-2.5" height="5" width="396.4996878900157" fill="#81BFFC" ><title >n0 → c7 {:type "generate_ok", :msg_id 5, :in_reply_to nil, :echo nil, :id "9b5c0b66-c2ba-4c31-a810-584aa12d1ad8"}</title></rect><use xlink:href="#ahead" x="400.4996878900157" y="0" /><text text-anchor="middle" x="200.24984394500785" y="-4" transform="rotate(180 200.24984394500785 0)" filter="url(#glow)" style="fill: #fff" >generate_ok {:echo nil, :id "9b5c0b66-c2ba-4c31…</text><text text-anchor="middle" x="200.24984394500785" y="-4" transform="rotate(180 200.24984394500785 0)" >generate_ok {:echo nil, :id "9b5c0b66-c2ba-4c31…</text></g><g transform="translate(100.0 1170.0) rotate(1.1457628381751035) " ><rect x="0" y="-2.5" height="5" width="996.199980003999" fill="#81BFFC" ><title >c6 → n2 {:type "generate", :msg_id 5}</title></rect><use xlink:href="#ahead" x="1000.199980003999" y="0" /><text text-anchor="middle" x="500.0999900019995" y="-4" transform="" filter="url(#glow)" style="fill: #fff" >generate {}</text><text text-anchor="middle" x="500.0999900019995" y="-4" transform="" >generate {}</text></g><g transform="translate(1100.0 1210.0) rotate(178.8542371618249) " ><rect x="0" y="-2.5" height="5" width="996.199980003999" fill="#81BFFC" ><title >n2 → c6 {:type "generate_ok", :msg_id 5, :in_reply_to nil, :echo nil, :id "19af79bc-062f-4e2e-9dc4-29bfea9ea247"}</title></rect><use xlink:href="#ahead" x="1000.199980003999" y="0" /><text text-anchor="middle" x="500.0999900019995" y="-4" transform="rotate(180 500.0999900019995 0)" filter="url(#glow)" style="fill: #fff" >generate_ok {:echo nil, :id "19af79bc-062f-4e2e…</text><text text-anchor="middle" x="500.0999900019995" y="-4" transform="rotate(180 500.0999900019995 0)" >generate_ok {:echo nil, :id "19af79bc-062f-4e2e…</text></g><g transform="translate(500.0 1250.0) rotate(2.862405226111748) " ><rect x="0" y="-2.5" height="5" width="396.4996878900157" fill="#81BFFC" ><title >c8 → n1 {:type "generate", :msg_id 6}</title></rect><use xlink:href="#ahead" x="400.4996878900157" y="0" /><text text-anchor="middle" x="200.24984394500785" y="-4" transform="" filter="url(#glow)" style="fill: #fff" >generate {}</text><text text-anchor="middle" x="200.24984394500785" y="-4" transform="" >generate {}</text></g><g transform="translate(900.0 1290.0) rotate(177.13759477388828) " ><rect x="0" y="-2.5" height="5" width="396.4996878900157" fill="#81BFFC" ><title >n1 → c8 {:type "generate_ok", :msg_id 6, :in_reply_to nil, :echo nil, :id "0456554f-5967-4582-8359-e3267edf685c"}</title></rect><use xlink:href="#ahead" x="400.4996878900157" y="0" /><text text-anchor="middle" x="200.24984394500785" y="-4" transform="rotate(180 200.24984394500785 0)" filter="url(#glow)" style="fill: #fff" >generate_ok {:echo nil, :id "0456554f-5967-4582…</text><text text-anchor="middle" x="200.24984394500785" y="-4" transform="rotate(180 200.24984394500785 0)" >generate_ok {:echo nil, :id "0456554f-5967-4582…</text></g><g transform="translate(300.0 1330.0) rotate(2.862405226111748) " ><rect x="0" y="-2.5" height="5" width="396.4996878900157" fill="#81BFFC" ><title >c7 → n0 {:type "generate", :msg_id 6}</title></rect><use xlink:href="#ahead" x="400.4996878900157" y="0" /><text text-anchor="middle" x="200.24984394500785" y="-4" transform="" filter="url(#glow)" style="fill: #fff" >generate {}</text><text text-anchor="middle" x="200.24984394500785" y="-4" transform="" >generate {}</text></g><g transform="translate(700.0 1370.0) rotate(177.13759477388828) " ><rect x="0" y="-2.5" height="5" width="396.4996878900157" fill="#81BFFC" ><title >n0 → c7 {:type "generate_ok", :msg_id 6, :in_reply_to nil, :echo nil, :id "02d3a0b4-feb6-4d05-a884-24b38aad8144"}</title></rect><use xlink:href="#ahead" x="400.4996878900157" y="0" /><text text-anchor="middle" x="200.24984394500785" y="-4" transform="rotate(180 200.24984394500785 0)" filter="url(#glow)" style="fill: #fff" >generate_ok {:echo nil, :id "02d3a0b4-feb6-4d05…</text><text text-anchor="middle" x="200.24984394500785" y="-4" transform="rotate(180 200.24984394500785 0)" >generate_ok {:echo nil, :id "02d3a0b4-feb6-4d05…</text></g><g transform="translate(100.0 1410.0) rotate(1.1457628381751035) " ><rect x="0" y="-2.5" height="5" width="996.199980003999" fill="#81BFFC" ><title >c6 → n2 {:type "generate", :msg_id 6}</title></rect><use xlink:href="#ahead" x="1000.199980003999" y="0" /><text text-anchor="middle" x="500.0999900019995" y="-4" transform="" filter="url(#glow)" style="fill: #fff" >generate {}</text><text text-anchor="middle" x="500.0999900019995" y="-4" transform="" >generate {}</text></g><g transform="translate(1100.0 1450.0) rotate(178.8542371618249) " ><rect x="0" y="-2.5" height="5" width="996.199980003999" fill="#81BFFC" ><title >n2 → c6 {:type "generate_ok", :msg_id 6, :in_reply_to nil, :echo nil, :id "4a5bb4e5-1a22-4117-9a83-525c3221fdc9"}</title></rect><use xlink:href="#ahead" x="1000.199980003999" y="0" /><text text-anchor="middle" x="500.0999900019995" y="-4" transform="rotate(180 500.0999900019995 0)" filter="url(#glow)" style="fill: #fff" >generate_ok {:echo nil, :id "4a5bb4e5-1a22-4117…</text><text text-anchor="middle" x="500.0999900019995" y="-4" transform="rotate(180 500.0999900019995 0)" >generate_ok {:echo nil, :id "4a5bb4e5-1a22-4117…</text></g></g></svg>